<svg xmlns="http://www.w3.org/2000/svg" viewBox="0 0 800 600">
  <rect width="800" height="600" fill="white"/>
  <text x="60" y="45" font-family="Arial" font-size="14" fill="#6B6B70">NIVEAU 1 — RÉCEPTION</text>
  <rect x="60" y="60" width="220" height="180" fill="#FCFBF7" stroke="#1F3D2B" stroke-width="3"/>
  <text x="170" y="144" text-anchor="middle" font-family="Georgia, serif" font-size="19" fill="#1F3D2B">Salon double hauteur</text>
  <text x="170" y="166" text-anchor="middle" font-family="Arial, sans-serif" font-size="13" fill="#9A7B3F">36 m²</text>
  <rect x="280" y="60" width="120" height="100" fill="#FCFBF7" stroke="#1F3D2B" stroke-width="3"/>
  <text x="340" y="104" text-anchor="middle" font-family="Georgia, serif" font-size="19" fill="#1F3D2B">Cuisine</text>
  <text x="340" y="126" text-anchor="middle" font-family="Arial, sans-serif" font-size="13" fill="#9A7B3F">14 m²</text>
  <rect x="280" y="160" width="120" height="80" fill="#FCFBF7" stroke="#1F3D2B" stroke-width="3"/>
  <text x="340" y="194" text-anchor="middle" font-family="Georgia, serif" font-size="19" fill="#1F3D2B">Entrée</text>
  <text x="340" y="216" text-anchor="middle" font-family="Arial, sans-serif" font-size="13" fill="#9A7B3F">8 m²</text>
  <rect x="60" y="240" width="340" height="60" fill="#EEF3EF" stroke="#527C60" stroke-width="2" stroke-dasharray="8 5"/>
  <text x="230" y="275" text-anchor="middle" font-family="Georgia, serif" font-size="16" font-style="italic" fill="#365B44">Terrasse panoramique</text><text x="440" y="45" font-family="Arial" font-size="14" fill="#6B6B70">NIVEAU 2 — NUIT</text>
  <rect x="440" y="60" width="150" height="150" fill="#FCFBF7" stroke="#1F3D2B" stroke-width="3"/>
  <text x="515" y="129" text-anchor="middle" font-family="Georgia, serif" font-size="19" fill="#1F3D2B">Suite parentale</text>
  <text x="515" y="151" text-anchor="middle" font-family="Arial, sans-serif" font-size="13" fill="#9A7B3F">20 m²</text>
  <rect x="590" y="60" width="150" height="150" fill="#FCFBF7" stroke="#1F3D2B" stroke-width="3"/>
  <text x="665" y="129" text-anchor="middle" font-family="Georgia, serif" font-size="19" fill="#1F3D2B">Chambre 2</text>
  <text x="665" y="151" text-anchor="middle" font-family="Arial, sans-serif" font-size="13" fill="#9A7B3F">14 m²</text>
  <rect x="440" y="210" width="150" height="130" fill="#FCFBF7" stroke="#1F3D2B" stroke-width="3"/>
  <text x="515" y="269" text-anchor="middle" font-family="Georgia, serif" font-size="19" fill="#1F3D2B">Chambre 3</text>
  <text x="515" y="291" text-anchor="middle" font-family="Arial, sans-serif" font-size="13" fill="#9A7B3F">13 m²</text>
  <rect x="590" y="210" width="150" height="130" fill="#FCFBF7" stroke="#1F3D2B" stroke-width="3"/>
  <text x="665" y="269" text-anchor="middle" font-family="Georgia, serif" font-size="19" fill="#1F3D2B">Chambre 4</text>
  <text x="665" y="291" text-anchor="middle" font-family="Arial, sans-serif" font-size="13" fill="#9A7B3F">12 m²</text>
  <rect x="440" y="340" width="300" height="80" fill="#FCFBF7" stroke="#1F3D2B" stroke-width="3"/>
  <text x="590" y="374" text-anchor="middle" font-family="Georgia, serif" font-size="19" fill="#1F3D2B">SDB + Dressing</text>
  <text x="590" y="396" text-anchor="middle" font-family="Arial, sans-serif" font-size="13" fill="#9A7B3F">12 m²</text><path d="M410 100 L430 100 M410 130 L430 130 M410 160 L430 160 M410 190 L430 190" stroke="#9A7B3F" stroke-width="3"/>
  <text x="40" y="572" font-family="Georgia, serif" font-size="20" fill="#1A1A1D">Duplex — env. 130 à 145 m² sur deux niveaux</text>
  <text x="760" y="572" text-anchor="end" font-family="Arial, sans-serif" font-size="12" fill="#6B6B70">Plan schématique non contractuel — Résidence Azure Bouskoura</text>
  <g transform="translate(730, 70)">
    <circle r="24" fill="none" stroke="#6B6B70" stroke-width="1.5"/>
    <path d="M0 -18 L6 8 L0 2 L-6 8 Z" fill="#1F3D2B"/>
    <text y="-32" text-anchor="middle" font-family="Arial" font-size="13" fill="#6B6B70">N</text>
  </g>
</svg>